<mxfile host="www.draw.io" modified="2020-01-08T13:16:32.903Z" agent="Mozilla/5.0 (Windows NT 10.0; Win64; x64; rv:71.0) Gecko/20100101 Firefox/71.0" etag="qJh05bkm-qN3iMnLPkwV" version="12.4.9" type="github">
  <diagram id="C5RBs43oDa-KdzZeNtuy" name="Page-1">
    <mxGraphModel dx="2031" dy="2313" grid="1" gridSize="10" guides="1" tooltips="1" connect="1" arrows="1" fold="1" page="1" pageScale="1" pageWidth="827" pageHeight="1169" math="0" shadow="0">
      <root>
        <mxCell id="WIyWlLk6GJQsqaUBKTNV-0"/>
        <mxCell id="WIyWlLk6GJQsqaUBKTNV-1" parent="WIyWlLk6GJQsqaUBKTNV-0"/>
        <mxCell id="OBOQh95cMkhffVZw8m3Q-5" value="CEO" style="rounded=1;fillColor=#10739E;strokeColor=none;shadow=1;gradientColor=none;fontStyle=1;fontColor=#FFFFFF;fontSize=14;" vertex="1" parent="WIyWlLk6GJQsqaUBKTNV-1">
          <mxGeometry x="620" y="114" width="200" height="60" as="geometry"/>
        </mxCell>
        <mxCell id="OBOQh95cMkhffVZw8m3Q-6" value="Deputy Director" style="rounded=1;fillColor=#10739E;strokeColor=none;shadow=1;gradientColor=none;fontStyle=1;fontColor=#FFFFFF;fontSize=14;" vertex="1" parent="WIyWlLk6GJQsqaUBKTNV-1">
          <mxGeometry x="610" y="254" width="220" height="60" as="geometry"/>
        </mxCell>
        <mxCell id="OBOQh95cMkhffVZw8m3Q-7" value="Office of &#xa;Workplace Solutions" style="rounded=1;fillColor=#10739E;strokeColor=none;shadow=1;gradientColor=none;fontStyle=1;fontColor=#FFFFFF;fontSize=14;" vertex="1" parent="WIyWlLk6GJQsqaUBKTNV-1">
          <mxGeometry x="250" y="364" width="200" height="60" as="geometry"/>
        </mxCell>
        <mxCell id="OBOQh95cMkhffVZw8m3Q-8" value="Office of Public Relations" style="rounded=1;fillColor=#10739E;strokeColor=none;shadow=1;gradientColor=none;fontStyle=1;fontColor=#FFFFFF;fontSize=14;" vertex="1" parent="WIyWlLk6GJQsqaUBKTNV-1">
          <mxGeometry x="490" y="364" width="200" height="60" as="geometry"/>
        </mxCell>
        <mxCell id="OBOQh95cMkhffVZw8m3Q-9" value="Counsel Division" style="rounded=1;fillColor=#10739E;strokeColor=none;shadow=1;gradientColor=none;fontStyle=1;fontColor=#FFFFFF;fontSize=14;" vertex="1" parent="WIyWlLk6GJQsqaUBKTNV-1">
          <mxGeometry x="820" y="364" width="200" height="60" as="geometry"/>
        </mxCell>
        <mxCell id="OBOQh95cMkhffVZw8m3Q-10" value="Cooperation" style="rounded=1;fillColor=#10739E;strokeColor=none;shadow=1;gradientColor=none;fontStyle=1;fontColor=#FFFFFF;fontSize=14;" vertex="1" parent="WIyWlLk6GJQsqaUBKTNV-1">
          <mxGeometry x="1220" y="364" width="200" height="60" as="geometry"/>
        </mxCell>
        <mxCell id="OBOQh95cMkhffVZw8m3Q-11" value="Analysis &#xa;Division" style="rounded=1;fillColor=#10739E;strokeColor=none;shadow=1;gradientColor=none;fontStyle=1;fontColor=#FFFFFF;fontSize=14;" vertex="1" parent="WIyWlLk6GJQsqaUBKTNV-1">
          <mxGeometry x="230" y="534" width="200" height="60" as="geometry"/>
        </mxCell>
        <mxCell id="OBOQh95cMkhffVZw8m3Q-12" value="Office of Global Support" style="rounded=1;fillColor=#10739E;strokeColor=none;shadow=1;gradientColor=none;fontStyle=1;fontColor=#FFFFFF;fontSize=14;" vertex="1" parent="WIyWlLk6GJQsqaUBKTNV-1">
          <mxGeometry x="230" y="614" width="200" height="60" as="geometry"/>
        </mxCell>
        <mxCell id="OBOQh95cMkhffVZw8m3Q-13" value="Office of &#xa;Backtrack Analysis" style="rounded=1;fillColor=#10739E;strokeColor=none;shadow=1;gradientColor=none;fontStyle=1;fontColor=#FFFFFF;fontSize=14;" vertex="1" parent="WIyWlLk6GJQsqaUBKTNV-1">
          <mxGeometry x="230" y="704" width="200" height="60" as="geometry"/>
        </mxCell>
        <mxCell id="OBOQh95cMkhffVZw8m3Q-14" value="Department of &#xa;Heuristic Support" style="rounded=1;fillColor=#10739E;strokeColor=none;shadow=1;gradientColor=none;fontStyle=1;fontColor=#FFFFFF;fontSize=14;" vertex="1" parent="WIyWlLk6GJQsqaUBKTNV-1">
          <mxGeometry x="230" y="794" width="200" height="60" as="geometry"/>
        </mxCell>
        <mxCell id="OBOQh95cMkhffVZw8m3Q-15" value="Office of Intelligence &#xa;Support" style="rounded=1;fillColor=#10739E;strokeColor=none;shadow=1;gradientColor=none;fontStyle=1;fontColor=#FFFFFF;fontSize=14;" vertex="1" parent="WIyWlLk6GJQsqaUBKTNV-1">
          <mxGeometry x="230" y="884" width="200" height="60" as="geometry"/>
        </mxCell>
        <mxCell id="OBOQh95cMkhffVZw8m3Q-16" value="IT&#xa;Division" style="rounded=1;fillColor=#10739E;strokeColor=none;shadow=1;gradientColor=none;fontStyle=1;fontColor=#FFFFFF;fontSize=14;" vertex="1" parent="WIyWlLk6GJQsqaUBKTNV-1">
          <mxGeometry x="500" y="524" width="200" height="60" as="geometry"/>
        </mxCell>
        <mxCell id="OBOQh95cMkhffVZw8m3Q-17" value="Database Administration" style="rounded=1;fillColor=#10739E;strokeColor=none;shadow=1;gradientColor=none;fontStyle=1;fontColor=#FFFFFF;fontSize=14;" vertex="1" parent="WIyWlLk6GJQsqaUBKTNV-1">
          <mxGeometry x="500" y="614" width="200" height="60" as="geometry"/>
        </mxCell>
        <mxCell id="OBOQh95cMkhffVZw8m3Q-18" value="Office of Technology &#xa;Research" style="rounded=1;fillColor=#10739E;strokeColor=none;shadow=1;gradientColor=none;fontStyle=1;fontColor=#FFFFFF;fontSize=14;" vertex="1" parent="WIyWlLk6GJQsqaUBKTNV-1">
          <mxGeometry x="500" y="704" width="200" height="60" as="geometry"/>
        </mxCell>
        <mxCell id="OBOQh95cMkhffVZw8m3Q-19" value="Office of&#xa;Data Services" style="rounded=1;fillColor=#10739E;strokeColor=none;shadow=1;gradientColor=none;fontStyle=1;fontColor=#FFFFFF;fontSize=14;" vertex="1" parent="WIyWlLk6GJQsqaUBKTNV-1">
          <mxGeometry x="500" y="794" width="200" height="60" as="geometry"/>
        </mxCell>
        <mxCell id="OBOQh95cMkhffVZw8m3Q-20" value="Management Programs &#xa;Division" style="rounded=1;fillColor=#10739E;strokeColor=none;shadow=1;gradientColor=none;fontStyle=1;fontColor=#FFFFFF;fontSize=14;" vertex="1" parent="WIyWlLk6GJQsqaUBKTNV-1">
          <mxGeometry x="790" y="524" width="200" height="60" as="geometry"/>
        </mxCell>
        <mxCell id="OBOQh95cMkhffVZw8m3Q-21" value="Office of Financial &#xa;Management" style="rounded=1;fillColor=#10739E;strokeColor=none;shadow=1;gradientColor=none;fontStyle=1;fontColor=#FFFFFF;fontSize=14;" vertex="1" parent="WIyWlLk6GJQsqaUBKTNV-1">
          <mxGeometry x="790" y="614" width="200" height="60" as="geometry"/>
        </mxCell>
        <mxCell id="OBOQh95cMkhffVZw8m3Q-22" value="Office of Human Resources" style="rounded=1;fillColor=#10739E;strokeColor=none;shadow=1;gradientColor=none;fontStyle=1;fontColor=#FFFFFF;fontSize=14;" vertex="1" parent="WIyWlLk6GJQsqaUBKTNV-1">
          <mxGeometry x="790" y="704" width="200" height="60" as="geometry"/>
        </mxCell>
        <mxCell id="OBOQh95cMkhffVZw8m3Q-23" value="Office of Management " style="rounded=1;fillColor=#10739E;strokeColor=none;shadow=1;gradientColor=none;fontStyle=1;fontColor=#FFFFFF;fontSize=14;" vertex="1" parent="WIyWlLk6GJQsqaUBKTNV-1">
          <mxGeometry x="790" y="794" width="200" height="60" as="geometry"/>
        </mxCell>
        <mxCell id="OBOQh95cMkhffVZw8m3Q-24" value="Office of Training Services" style="rounded=1;fillColor=#10739E;strokeColor=none;shadow=1;gradientColor=none;fontStyle=1;fontColor=#FFFFFF;fontSize=14;" vertex="1" parent="WIyWlLk6GJQsqaUBKTNV-1">
          <mxGeometry x="790" y="884" width="200" height="60" as="geometry"/>
        </mxCell>
        <mxCell id="OBOQh95cMkhffVZw8m3Q-25" value="Regulatory &#xa;and Enforcement Division" style="rounded=1;fillColor=#10739E;strokeColor=none;shadow=1;gradientColor=none;fontStyle=1;fontColor=#FFFFFF;fontSize=14;" vertex="1" parent="WIyWlLk6GJQsqaUBKTNV-1">
          <mxGeometry x="1040" y="524" width="200" height="60" as="geometry"/>
        </mxCell>
        <mxCell id="OBOQh95cMkhffVZw8m3Q-26" value="Office of Regulatory Policy" style="rounded=1;fillColor=#10739E;strokeColor=none;shadow=1;gradientColor=none;fontStyle=1;fontColor=#FFFFFF;fontSize=14;" vertex="1" parent="WIyWlLk6GJQsqaUBKTNV-1">
          <mxGeometry x="1040" y="614" width="200" height="60" as="geometry"/>
        </mxCell>
        <mxCell id="OBOQh95cMkhffVZw8m3Q-27" value="Office Compliance" style="rounded=1;fillColor=#10739E;strokeColor=none;shadow=1;gradientColor=none;fontStyle=1;fontColor=#FFFFFF;fontSize=14;" vertex="1" parent="WIyWlLk6GJQsqaUBKTNV-1">
          <mxGeometry x="1040" y="704" width="200" height="60" as="geometry"/>
        </mxCell>
        <mxCell id="OBOQh95cMkhffVZw8m3Q-28" value="Office of &#xa;Enforcement" style="rounded=1;fillColor=#10739E;strokeColor=none;shadow=1;gradientColor=none;fontStyle=1;fontColor=#FFFFFF;fontSize=14;" vertex="1" parent="WIyWlLk6GJQsqaUBKTNV-1">
          <mxGeometry x="1040" y="794" width="200" height="60" as="geometry"/>
        </mxCell>
        <mxCell id="OBOQh95cMkhffVZw8m3Q-29" value="Office of&#xa; Regulatory Support" style="rounded=1;fillColor=#10739E;strokeColor=none;shadow=1;gradientColor=none;fontStyle=1;fontColor=#FFFFFF;fontSize=14;" vertex="1" parent="WIyWlLk6GJQsqaUBKTNV-1">
          <mxGeometry x="1040" y="884" width="200" height="60" as="geometry"/>
        </mxCell>
        <mxCell id="OBOQh95cMkhffVZw8m3Q-30" value="" style="edgeStyle=elbowEdgeStyle;elbow=vertical;strokeWidth=4;endArrow=block;endFill=1;fontStyle=1;strokeColor=#23445D;" edge="1" parent="WIyWlLk6GJQsqaUBKTNV-1" source="OBOQh95cMkhffVZw8m3Q-5" target="OBOQh95cMkhffVZw8m3Q-6">
          <mxGeometry x="-30" y="74" width="100" height="100" as="geometry">
            <mxPoint x="-30" y="174" as="sourcePoint"/>
            <mxPoint x="70" y="74" as="targetPoint"/>
          </mxGeometry>
        </mxCell>
        <mxCell id="OBOQh95cMkhffVZw8m3Q-31" value="" style="edgeStyle=elbowEdgeStyle;elbow=vertical;strokeWidth=4;endArrow=block;endFill=1;fontStyle=1;strokeColor=#23445D;" edge="1" parent="WIyWlLk6GJQsqaUBKTNV-1" source="OBOQh95cMkhffVZw8m3Q-6" target="OBOQh95cMkhffVZw8m3Q-8">
          <mxGeometry x="-30" y="74" width="100" height="100" as="geometry">
            <mxPoint x="-30" y="174" as="sourcePoint"/>
            <mxPoint x="70" y="74" as="targetPoint"/>
          </mxGeometry>
        </mxCell>
        <mxCell id="OBOQh95cMkhffVZw8m3Q-32" value="" style="edgeStyle=elbowEdgeStyle;elbow=vertical;strokeWidth=4;endArrow=block;endFill=1;fontStyle=1;strokeColor=#23445D;" edge="1" parent="WIyWlLk6GJQsqaUBKTNV-1" source="OBOQh95cMkhffVZw8m3Q-6" target="OBOQh95cMkhffVZw8m3Q-7">
          <mxGeometry x="-30" y="74" width="100" height="100" as="geometry">
            <mxPoint x="-30" y="174" as="sourcePoint"/>
            <mxPoint x="70" y="74" as="targetPoint"/>
          </mxGeometry>
        </mxCell>
        <mxCell id="OBOQh95cMkhffVZw8m3Q-33" value="" style="edgeStyle=elbowEdgeStyle;elbow=vertical;strokeWidth=4;endArrow=block;endFill=1;fontStyle=1;strokeColor=#23445D;" edge="1" parent="WIyWlLk6GJQsqaUBKTNV-1" source="OBOQh95cMkhffVZw8m3Q-6" target="OBOQh95cMkhffVZw8m3Q-9">
          <mxGeometry x="-30" y="74" width="100" height="100" as="geometry">
            <mxPoint x="-30" y="174" as="sourcePoint"/>
            <mxPoint x="70" y="74" as="targetPoint"/>
          </mxGeometry>
        </mxCell>
        <mxCell id="OBOQh95cMkhffVZw8m3Q-34" value="" style="edgeStyle=elbowEdgeStyle;elbow=vertical;strokeWidth=4;endArrow=block;endFill=1;fontStyle=1;dashed=1;strokeColor=#23445D;" edge="1" parent="WIyWlLk6GJQsqaUBKTNV-1" source="OBOQh95cMkhffVZw8m3Q-5" target="OBOQh95cMkhffVZw8m3Q-10">
          <mxGeometry x="-30" y="74" width="100" height="100" as="geometry">
            <mxPoint x="-30" y="174" as="sourcePoint"/>
            <mxPoint x="70" y="74" as="targetPoint"/>
            <Array as="points">
              <mxPoint x="1010" y="204"/>
            </Array>
          </mxGeometry>
        </mxCell>
        <mxCell id="OBOQh95cMkhffVZw8m3Q-35" value="" style="edgeStyle=elbowEdgeStyle;elbow=vertical;strokeWidth=4;endArrow=block;endFill=1;fontStyle=1;strokeColor=#23445D;" edge="1" parent="WIyWlLk6GJQsqaUBKTNV-1" source="OBOQh95cMkhffVZw8m3Q-6" target="OBOQh95cMkhffVZw8m3Q-11">
          <mxGeometry x="-30" y="74" width="100" height="100" as="geometry">
            <mxPoint x="-30" y="174" as="sourcePoint"/>
            <mxPoint x="70" y="74" as="targetPoint"/>
            <Array as="points">
              <mxPoint x="500" y="464"/>
            </Array>
          </mxGeometry>
        </mxCell>
        <mxCell id="OBOQh95cMkhffVZw8m3Q-36" value="" style="edgeStyle=elbowEdgeStyle;elbow=vertical;strokeWidth=4;endArrow=block;endFill=1;fontStyle=1;strokeColor=#23445D;" edge="1" parent="WIyWlLk6GJQsqaUBKTNV-1" source="OBOQh95cMkhffVZw8m3Q-6" target="OBOQh95cMkhffVZw8m3Q-25">
          <mxGeometry x="-30" y="74" width="100" height="100" as="geometry">
            <mxPoint x="-30" y="174" as="sourcePoint"/>
            <mxPoint x="70" y="74" as="targetPoint"/>
            <Array as="points">
              <mxPoint x="920" y="464"/>
            </Array>
          </mxGeometry>
        </mxCell>
        <mxCell id="OBOQh95cMkhffVZw8m3Q-37" value="" style="edgeStyle=elbowEdgeStyle;elbow=vertical;strokeWidth=4;endArrow=block;endFill=1;fontStyle=1;strokeColor=#23445D;" edge="1" parent="WIyWlLk6GJQsqaUBKTNV-1" source="OBOQh95cMkhffVZw8m3Q-11" target="OBOQh95cMkhffVZw8m3Q-12">
          <mxGeometry x="10" y="74" width="100" height="100" as="geometry">
            <mxPoint x="10" y="174" as="sourcePoint"/>
            <mxPoint x="110" y="74" as="targetPoint"/>
          </mxGeometry>
        </mxCell>
        <mxCell id="OBOQh95cMkhffVZw8m3Q-38" value="" style="edgeStyle=elbowEdgeStyle;elbow=vertical;strokeWidth=4;endArrow=block;endFill=1;fontStyle=1;strokeColor=#23445D;" edge="1" parent="WIyWlLk6GJQsqaUBKTNV-1" source="OBOQh95cMkhffVZw8m3Q-12" target="OBOQh95cMkhffVZw8m3Q-13">
          <mxGeometry x="10" y="84" width="100" height="100" as="geometry">
            <mxPoint x="10" y="184" as="sourcePoint"/>
            <mxPoint x="110" y="84" as="targetPoint"/>
          </mxGeometry>
        </mxCell>
        <mxCell id="OBOQh95cMkhffVZw8m3Q-39" value="" style="edgeStyle=elbowEdgeStyle;elbow=vertical;strokeWidth=4;endArrow=block;endFill=1;fontStyle=1;strokeColor=#23445D;" edge="1" parent="WIyWlLk6GJQsqaUBKTNV-1" source="OBOQh95cMkhffVZw8m3Q-13" target="OBOQh95cMkhffVZw8m3Q-14">
          <mxGeometry x="10" y="94" width="100" height="100" as="geometry">
            <mxPoint x="10" y="194" as="sourcePoint"/>
            <mxPoint x="110" y="94" as="targetPoint"/>
          </mxGeometry>
        </mxCell>
        <mxCell id="OBOQh95cMkhffVZw8m3Q-40" value="" style="edgeStyle=elbowEdgeStyle;elbow=vertical;strokeWidth=4;endArrow=block;endFill=1;fontStyle=1;strokeColor=#23445D;" edge="1" parent="WIyWlLk6GJQsqaUBKTNV-1" source="OBOQh95cMkhffVZw8m3Q-14" target="OBOQh95cMkhffVZw8m3Q-15">
          <mxGeometry x="10" y="104" width="100" height="100" as="geometry">
            <mxPoint x="10" y="204" as="sourcePoint"/>
            <mxPoint x="110" y="104" as="targetPoint"/>
          </mxGeometry>
        </mxCell>
        <mxCell id="OBOQh95cMkhffVZw8m3Q-41" value="" style="edgeStyle=elbowEdgeStyle;elbow=vertical;strokeWidth=4;endArrow=block;endFill=1;fontStyle=1;strokeColor=#23445D;" edge="1" parent="WIyWlLk6GJQsqaUBKTNV-1" source="OBOQh95cMkhffVZw8m3Q-16" target="OBOQh95cMkhffVZw8m3Q-17">
          <mxGeometry x="10" y="74" width="100" height="100" as="geometry">
            <mxPoint x="10" y="174" as="sourcePoint"/>
            <mxPoint x="110" y="74" as="targetPoint"/>
          </mxGeometry>
        </mxCell>
        <mxCell id="OBOQh95cMkhffVZw8m3Q-42" value="" style="edgeStyle=elbowEdgeStyle;elbow=vertical;strokeWidth=4;endArrow=block;endFill=1;fontStyle=1;strokeColor=#23445D;" edge="1" parent="WIyWlLk6GJQsqaUBKTNV-1" source="OBOQh95cMkhffVZw8m3Q-17" target="OBOQh95cMkhffVZw8m3Q-18">
          <mxGeometry x="10" y="84" width="100" height="100" as="geometry">
            <mxPoint x="10" y="184" as="sourcePoint"/>
            <mxPoint x="110" y="84" as="targetPoint"/>
          </mxGeometry>
        </mxCell>
        <mxCell id="OBOQh95cMkhffVZw8m3Q-43" value="" style="edgeStyle=elbowEdgeStyle;elbow=vertical;strokeWidth=4;endArrow=block;endFill=1;fontStyle=1;strokeColor=#23445D;" edge="1" parent="WIyWlLk6GJQsqaUBKTNV-1" source="OBOQh95cMkhffVZw8m3Q-18" target="OBOQh95cMkhffVZw8m3Q-19">
          <mxGeometry x="10" y="94" width="100" height="100" as="geometry">
            <mxPoint x="10" y="194" as="sourcePoint"/>
            <mxPoint x="110" y="94" as="targetPoint"/>
          </mxGeometry>
        </mxCell>
        <mxCell id="OBOQh95cMkhffVZw8m3Q-44" value="" style="edgeStyle=elbowEdgeStyle;elbow=vertical;strokeWidth=4;endArrow=block;endFill=1;fontStyle=1;strokeColor=#23445D;" edge="1" parent="WIyWlLk6GJQsqaUBKTNV-1" source="OBOQh95cMkhffVZw8m3Q-20" target="OBOQh95cMkhffVZw8m3Q-21">
          <mxGeometry x="20" y="74" width="100" height="100" as="geometry">
            <mxPoint x="20" y="174" as="sourcePoint"/>
            <mxPoint x="120" y="74" as="targetPoint"/>
          </mxGeometry>
        </mxCell>
        <mxCell id="OBOQh95cMkhffVZw8m3Q-45" value="" style="edgeStyle=elbowEdgeStyle;elbow=vertical;strokeWidth=4;endArrow=block;endFill=1;fontStyle=1;strokeColor=#23445D;" edge="1" parent="WIyWlLk6GJQsqaUBKTNV-1" source="OBOQh95cMkhffVZw8m3Q-21" target="OBOQh95cMkhffVZw8m3Q-22">
          <mxGeometry x="20" y="84" width="100" height="100" as="geometry">
            <mxPoint x="20" y="184" as="sourcePoint"/>
            <mxPoint x="120" y="84" as="targetPoint"/>
          </mxGeometry>
        </mxCell>
        <mxCell id="OBOQh95cMkhffVZw8m3Q-46" value="" style="edgeStyle=elbowEdgeStyle;elbow=vertical;strokeWidth=4;endArrow=block;endFill=1;fontStyle=1;strokeColor=#23445D;" edge="1" parent="WIyWlLk6GJQsqaUBKTNV-1" source="OBOQh95cMkhffVZw8m3Q-22" target="OBOQh95cMkhffVZw8m3Q-23">
          <mxGeometry x="20" y="94" width="100" height="100" as="geometry">
            <mxPoint x="20" y="194" as="sourcePoint"/>
            <mxPoint x="120" y="94" as="targetPoint"/>
          </mxGeometry>
        </mxCell>
        <mxCell id="OBOQh95cMkhffVZw8m3Q-47" value="" style="edgeStyle=elbowEdgeStyle;elbow=vertical;strokeWidth=4;endArrow=block;endFill=1;fontStyle=1;strokeColor=#23445D;" edge="1" parent="WIyWlLk6GJQsqaUBKTNV-1" source="OBOQh95cMkhffVZw8m3Q-23" target="OBOQh95cMkhffVZw8m3Q-24">
          <mxGeometry x="20" y="104" width="100" height="100" as="geometry">
            <mxPoint x="20" y="204" as="sourcePoint"/>
            <mxPoint x="120" y="104" as="targetPoint"/>
          </mxGeometry>
        </mxCell>
        <mxCell id="OBOQh95cMkhffVZw8m3Q-48" value="" style="edgeStyle=elbowEdgeStyle;elbow=vertical;strokeWidth=4;endArrow=block;endFill=1;fontStyle=1;strokeColor=#23445D;" edge="1" parent="WIyWlLk6GJQsqaUBKTNV-1" source="OBOQh95cMkhffVZw8m3Q-25" target="OBOQh95cMkhffVZw8m3Q-26">
          <mxGeometry x="20" y="74" width="100" height="100" as="geometry">
            <mxPoint x="20" y="174" as="sourcePoint"/>
            <mxPoint x="120" y="74" as="targetPoint"/>
          </mxGeometry>
        </mxCell>
        <mxCell id="OBOQh95cMkhffVZw8m3Q-49" value="" style="edgeStyle=elbowEdgeStyle;elbow=vertical;strokeWidth=4;endArrow=block;endFill=1;fontStyle=1;strokeColor=#23445D;" edge="1" parent="WIyWlLk6GJQsqaUBKTNV-1" source="OBOQh95cMkhffVZw8m3Q-26" target="OBOQh95cMkhffVZw8m3Q-27">
          <mxGeometry x="20" y="84" width="100" height="100" as="geometry">
            <mxPoint x="20" y="184" as="sourcePoint"/>
            <mxPoint x="120" y="84" as="targetPoint"/>
          </mxGeometry>
        </mxCell>
        <mxCell id="OBOQh95cMkhffVZw8m3Q-50" value="" style="edgeStyle=elbowEdgeStyle;elbow=vertical;strokeWidth=4;endArrow=block;endFill=1;fontStyle=1;strokeColor=#23445D;" edge="1" parent="WIyWlLk6GJQsqaUBKTNV-1" source="OBOQh95cMkhffVZw8m3Q-27" target="OBOQh95cMkhffVZw8m3Q-28">
          <mxGeometry x="20" y="94" width="100" height="100" as="geometry">
            <mxPoint x="20" y="194" as="sourcePoint"/>
            <mxPoint x="120" y="94" as="targetPoint"/>
          </mxGeometry>
        </mxCell>
        <mxCell id="OBOQh95cMkhffVZw8m3Q-51" value="" style="edgeStyle=elbowEdgeStyle;elbow=vertical;strokeWidth=4;endArrow=block;endFill=1;fontStyle=1;strokeColor=#23445D;" edge="1" parent="WIyWlLk6GJQsqaUBKTNV-1" source="OBOQh95cMkhffVZw8m3Q-28" target="OBOQh95cMkhffVZw8m3Q-29">
          <mxGeometry x="20" y="104" width="100" height="100" as="geometry">
            <mxPoint x="20" y="204" as="sourcePoint"/>
            <mxPoint x="120" y="104" as="targetPoint"/>
          </mxGeometry>
        </mxCell>
        <mxCell id="OBOQh95cMkhffVZw8m3Q-52" value="" style="edgeStyle=elbowEdgeStyle;elbow=vertical;strokeWidth=4;endArrow=block;endFill=1;fontStyle=1;strokeColor=#23445D;" edge="1" parent="WIyWlLk6GJQsqaUBKTNV-1" source="OBOQh95cMkhffVZw8m3Q-6" target="OBOQh95cMkhffVZw8m3Q-16">
          <mxGeometry x="-30" y="74" width="100" height="100" as="geometry">
            <mxPoint x="-30" y="174" as="sourcePoint"/>
            <mxPoint x="70" y="74" as="targetPoint"/>
            <Array as="points">
              <mxPoint x="600" y="464"/>
            </Array>
          </mxGeometry>
        </mxCell>
        <mxCell id="OBOQh95cMkhffVZw8m3Q-53" value="" style="edgeStyle=elbowEdgeStyle;elbow=vertical;strokeWidth=4;endArrow=block;endFill=1;fontStyle=1;strokeColor=#23445D;" edge="1" parent="WIyWlLk6GJQsqaUBKTNV-1" source="OBOQh95cMkhffVZw8m3Q-6" target="OBOQh95cMkhffVZw8m3Q-20">
          <mxGeometry x="-30" y="74" width="100" height="100" as="geometry">
            <mxPoint x="-30" y="174" as="sourcePoint"/>
            <mxPoint x="70" y="74" as="targetPoint"/>
            <Array as="points">
              <mxPoint x="890" y="464"/>
            </Array>
          </mxGeometry>
        </mxCell>
        <mxCell id="OBOQh95cMkhffVZw8m3Q-106" value="Text" style="text;html=1;align=center;verticalAlign=middle;resizable=0;points=[];autosize=1;" vertex="1" parent="WIyWlLk6GJQsqaUBKTNV-1">
          <mxGeometry x="5" y="-3" width="40" height="20" as="geometry"/>
        </mxCell>
      </root>
    </mxGraphModel>
  </diagram>
</mxfile>
